<?xml version="1.0" standalone="no"?>
<!--
    This has been exported from the original PSD file to SVG using Affinity Designer
    Original PSD can be found here: https://groups.google.com/d/msg/clojurebridge-workshops/JSnNPYTogdc/DBN6wR1EddkJ
-->
<!DOCTYPE svg PUBLIC "-//W3C//DTD SVG 1.1//EN" "http://www.w3.org/Graphics/SVG/1.1/DTD/svg11.dtd">
<svg width="100%" height="100%" viewBox="0 0 3000 3000" version="1.1" xmlns="http://www.w3.org/2000/svg" xmlns:xlink="http://www.w3.org/1999/xlink" xml:space="preserve" style="fill-rule:evenodd;clip-rule:evenodd;stroke-linejoin:round;stroke-miterlimit:1.41421;">
    <path id="Logo" d="M2447.62,2338.15C2397.29,2408.14 2337.17,2384.77 2352.85,2304.98C2368.61,2219.7 2432.77,2163.22 2510.1,2132.63C2495.94,2225.94 2477.24,2297.18 2447.62,2338.15ZM1203.6,2163.63C1191.77,2125.26 1246.35,2099.28 1315.46,2105.21C1296.01,2169.68 1210.85,2191.57 1203.6,2163.63ZM2228.6,1868.54C2215.85,1956.21 2189.23,1993.43 2169.69,1990.14C2148.05,1986.41 2144,1919.79 2151.07,1866.97C2158,1818.96 2177.4,1766.13 2210.07,1764.52C2216.23,1764.51 2221.04,1764.66 2226.15,1767.51C2225.97,1802.44 2226.38,1836.61 2228.6,1868.54ZM2539.74,1774.74L2534.88,1859.48C2520.76,1928.83 2498.04,1958.07 2481.28,1955.16C2458.97,1951.51 2454.23,1884.96 2462.66,1831.99C2469.59,1783.98 2488.31,1731.23 2521.66,1729.54C2529.85,1729.3 2538.34,1731.77 2545.03,1736.5C2542.87,1747.69 2540.85,1760.24 2539.74,1774.74ZM1658.26,1939.41C1661.8,1879.46 1617.51,1838.58 1564.52,1817.83C1596.94,1783.39 1618.29,1735.81 1618.61,1689.92C1618.81,1600.23 1522.98,1551.43 1413.78,1566.43C1235.93,1591.88 1108.68,1726.63 1102.24,1876.57C1097.86,1983.85 1160.71,2025.39 1230.48,2018.92C1306.94,2011.02 1278.75,1924.52 1278.75,1924.52C1238.21,1947.55 1161.79,1925.33 1159,1851.72C1154.45,1744.08 1249.42,1632.8 1390.02,1617.01C1464.38,1608.67 1530.83,1651.86 1529.85,1716.31C1529.74,1751.92 1517.91,1780.62 1499.15,1802.58C1484.58,1800.79 1470.98,1801.63 1458.14,1803.08C1401.51,1810.8 1391.95,1853.63 1432.82,1864.1C1461,1871.2 1489.24,1866.67 1515.21,1854.17C1544.53,1871.41 1564.85,1906.09 1559.36,1966.94C1549.94,2072.04 1464.48,2091.22 1394.69,2085.37C1405.77,2049.9 1410.15,2009.7 1405.97,1966.37C1382.27,1730.83 1421.2,1687.44 1421.2,1687.44C1418.17,1660.4 1361.19,1628.46 1324.68,1687.32C1291.16,1742.42 1343.25,1834.46 1319.79,2076.66C1218.23,2074.37 1126.56,2123.68 1138.95,2185.26C1153.45,2253.45 1270.4,2240.32 1345.06,2167.6C1360.44,2152.18 1372.89,2135.04 1382.25,2114.83C1505.69,2129.03 1647.91,2085 1658.26,1939.41ZM1863.61,2165.51C1917.47,2169.73 1938.24,2135.23 1928.14,2106.25C1928.14,2106.25 1910.21,2123.32 1881.65,2112.83C1844.37,2097.85 1835.81,1966.71 1867.07,1842.73C1882.25,1782.84 1877.88,1774.43 1774.69,1794.23C1711.68,1806.1 1690.02,1777.73 1690.02,1777.73C1690.02,1777.73 1682.06,1786.15 1681.02,1789.01C1662.12,1815.77 1673.42,1849.41 1701.91,1865.38C1699.86,1914.21 1689.64,1975.59 1671.81,2017.97C1671.81,2017.97 1672.57,2018.58 1672.64,2019.25C1678.06,2030.96 1692.56,2032.07 1701.1,2010.58C1718.63,1965.49 1731.19,1918.9 1737.3,1875.78C1746.24,1876.14 1756.46,1875.68 1767.8,1873.04L1773.81,1871.68C1732.18,2055.69 1772.63,2159.98 1863.61,2165.51ZM2046.25,1756.22C2061.76,1723.67 2058.36,1699.41 2015.07,1685.79C1979.68,1675.39 1944.39,1690.3 1940.01,1730.5C1937.79,1759.5 1949.91,1788.25 1984.1,1794C2007.09,1797.58 2034.11,1782.22 2046.25,1756.22ZM989.64,1690.57C940.82,1761.76 878.52,1737.27 894.203,1657.48C911.528,1567.92 981.097,1510.83 1062.64,1481.14C1050.72,1563.93 1028.64,1635.54 989.64,1690.57ZM2253.18,1429.07C2243.64,1490.38 2236.36,1559.64 2231.33,1630.71L2221.04,1636.66C2114.9,1697.17 2080.44,1585.36 2113.24,1493.38C2164.68,1347.97 2270.93,1312.77 2253.18,1429.07ZM2392.09,1960.47C2408.29,1994.22 2434.57,2012.63 2465.19,2006.94C2497.41,2001.27 2517.21,1976.45 2529.05,1947.75C2526.54,1986.36 2523.12,2023.02 2519.48,2057.65C2419.93,2103.74 2338.82,2186.09 2320.53,2285.34C2288.95,2455.21 2440.47,2457.37 2520.11,2343.7C2554.38,2295.36 2578.63,2212.55 2595.03,2108.72C2641.37,2100.78 2688.55,2100.28 2728.97,2106.69C2801.54,2119.08 2821.72,2158.57 2821.72,2158.57C2856.39,2125.93 2855.24,2042.55 2764.85,2023.95C2713.61,2012.59 2658.48,2015.35 2605.08,2027.51C2611.25,1966.58 2614.7,1899.8 2616.5,1830.46C2618.33,1724.85 2643.54,1693.27 2643.54,1693.27C2611.96,1668.06 2573.88,1670.29 2553.87,1711.55C2544.77,1703.67 2533.87,1698.05 2522,1695.96C2445.14,1682 2382.42,1751.33 2375.25,1852.07C2373.3,1878.63 2375.06,1903.15 2379.95,1924.52C2367.09,1960.65 2348.76,1987.48 2331.41,1985.68C2310.68,1983.9 2305.66,1926.96 2306.94,1865.22C2308.1,1826.76 2311.9,1732.55 2318.92,1636.62C2377.11,1612.29 2436.68,1612.45 2491.83,1622C2563.8,1635.14 2583.83,1673.28 2583.83,1673.28C2618.49,1640.64 2618.7,1557.1 2527.64,1538.58C2452.65,1523.04 2381.47,1547.46 2322.53,1577.35C2325.94,1534.53 2330.1,1492.31 2334.49,1458.27C2366.42,1200.06 2111.48,1337.51 2039.66,1526.97C1988.14,1665.54 2085.83,1767.52 2228.24,1688.56L2225.96,1735.36C2221.6,1733.11 2217.32,1731.53 2211.76,1730.79C2134.22,1716.91 2071.51,1786.24 2064.33,1886.98C2062.83,1907.49 2063.54,1926.79 2066.26,1944.3C2053.57,1989.17 2032.88,2029.65 2012.38,2027.65C1994.35,2025.57 1981.03,1998.32 1987.86,1931.16C1994.47,1861.97 2016.21,1830.09 2016.21,1830.09C1959.39,1799.51 1912.47,1826.68 1902.96,1912.62C1891.95,2009.69 1923.04,2067.12 1975.55,2071.49C2020.7,2074.92 2056.13,2037.69 2077.43,1986.65C2093.13,2025.87 2121.37,2047.98 2154.95,2041.77C2205.27,2032.69 2224.81,1975.06 2233.63,1931.63C2239.77,1986.38 2257.69,2024.07 2293.91,2029.59C2336.41,2035.41 2370.41,2005.7 2392.09,1960.47ZM1325.98,1150.4C1342.92,1045.14 1326.79,999.035 1240.82,1038.12C1240.82,1038.12 1255.43,1064.54 1240.6,1170.25C1227.26,1264.84 1248.6,1332.95 1305.46,1333.41C1349.33,1333.96 1377.14,1282.92 1391.36,1238.89C1397.95,1352.46 1422.43,1405.84 1457.98,1429.91C1499.41,1457.43 1574.21,1446.98 1617.61,1364.07C1628.4,1344.38 1618.93,1333.12 1605.63,1336.67C1605.03,1337.42 1604.36,1337.5 1604.36,1337.5C1575.43,1396.87 1526.69,1407.82 1500.75,1384.04C1470.9,1355.9 1465.14,1249.77 1472.31,1149.03C1477.56,1073.83 1500.1,1012.43 1500.1,1012.43C1457.09,976.876 1395.29,993.398 1390.82,1093.83C1389.95,1122.68 1389.53,1149.42 1388.81,1173.46C1375.3,1248.22 1352.13,1285.73 1334.7,1282.89C1314.49,1279.69 1312.71,1233.34 1325.98,1150.4ZM914.002,1071.39C918.809,1071.53 922.941,1071.75 927.825,1072.57C916.589,1100.53 945.767,1128.74 978.896,1131.18C985.132,1131.85 990.615,1131.92 997.451,1131.84C1003.63,1150.31 1007.34,1171.11 1006.31,1192.45C1002.26,1266.14 960.484,1320.8 916.242,1323.03C874.704,1324.95 851.217,1280.36 854.74,1208.09C857.884,1132.45 880.727,1073.75 914.002,1071.39ZM1560.87,974.808C1521.4,1007.3 1541.94,1104.93 1543.02,1260.88C1542.9,1284.16 1536.08,1296.56 1536.08,1296.56C1602.13,1317.9 1623.28,1286.77 1624.78,1153.81C1658.08,1041.93 1683.42,999.381 1700.85,1002.22C1717.75,1006.48 1705.64,1057.12 1676.24,1093.96C1676.24,1093.96 1758.76,1127.82 1774.47,1072.67C1801.03,980.017 1778.91,953.751 1743.08,951.614C1704.54,949.78 1662.05,973.716 1626.33,1070.13C1630.83,994.334 1643.73,981.248 1643.73,981.248C1643.73,981.248 1602.75,939.305 1560.87,974.808ZM1900.16,1174.23C2055.72,1102.7 2075.83,952.588 1948.19,943.645C1858.57,937.963 1795.56,1010.75 1788.08,1108.79C1781.28,1206.75 1844.67,1265.34 1897.34,1271.06C1987.34,1280.13 2067.27,1217.76 2087.09,1144.35C2092.77,1121.81 2081.65,1114.16 2069.26,1119.66C2068.58,1119.73 2068.66,1120.41 2068.66,1120.41C2054.68,1178.79 1992.24,1232.35 1934.17,1227.23C1879.56,1222.41 1866.92,1146.48 1875.5,1088.7C1882.43,1040.7 1903.15,969.236 1931.78,974.236C1959.65,978.636 1970.02,1107.53 1898.63,1148.4C1874.23,1162.77 1900.16,1174.23 1900.16,1174.23ZM767.103,823.667C789.431,839.641 760.512,972.257 693.229,1122.87C706.883,976.224 740.34,804.768 767.103,823.667ZM1089.48,1088.57C1070.01,1093.71 1050.61,1095.21 1031.74,1095.82C1011.24,1041.3 970.893,1029.41 943.951,1051.6C936.136,1049.05 927.196,1048.69 916.905,1048.47C833.078,1051.72 769.545,1132.1 767.933,1233.58C767.408,1259.45 771.122,1282.37 778.295,1302.1C766.052,1335.5 749.314,1360.12 733.758,1355.84C704.153,1348.21 687.922,1276.79 688.886,1200.02C804.609,974.835 842.231,767.318 778.138,751.241C685.943,728.736 610.841,1004.8 610.072,1186.96C610.167,1224.99 613.173,1259.55 619.494,1289.3C601.316,1352.74 535.264,1411.21 477.929,1405.78C410.166,1399.69 356.038,1295.57 375.934,1155.75C376.307,1152.97 376.679,1150.19 377.651,1146.66C437.206,1134.5 494.718,1110.25 540.345,1071.58C632.951,994.107 629.279,869.942 557.605,859.508C474.288,849.011 345.552,927.806 298.644,1095.3C222.149,1092.61 145.214,1075.43 86.8791,1050.54C277.439,449.582 839.743,14.1406 1503.75,14.1406C2324.58,14.1406 2990,679.558 2990,1500.39C2990,1613.3 2977.41,1723.26 2953.48,1828.97L2950.44,1829.93C2949.77,1830.01 2949.84,1830.69 2949.84,1830.69C2935.86,1889.07 2873.43,1942.62 2815.36,1937.51C2760.74,1932.69 2748.11,1856.76 2756.68,1798.98C2763.61,1750.97 2784.34,1679.51 2812.96,1684.51C2840.84,1688.91 2851.2,1817.8 2779.81,1858.67C2755.41,1873.05 2781.34,1884.51 2781.34,1884.51C2936.9,1812.97 2957.01,1662.87 2829.38,1653.92C2739.76,1648.24 2676.74,1721.03 2669.27,1819.06C2662.47,1917.02 2725.86,1975.62 2778.52,1981.34C2837.75,1987.3 2892.61,1962.34 2928.79,1923.49C2746.7,2538.21 2177.59,2986.64 1503.75,2986.64C682.917,2986.64 17.5,2321.22 17.5,1500.39C17.5,1372.73 33.5958,1248.82 63.9037,1130.54C117.771,1148.8 199.329,1162.42 285.196,1158.41L283.113,1176.44C265.293,1359.15 357.255,1440.54 441.096,1449.61C523.751,1458.15 600.282,1402.32 631.522,1330.96C645.263,1366.49 666.106,1390.75 694.898,1399.9C731.841,1411.19 769.142,1377.71 792.209,1330.65C815.3,1367.3 853.017,1386.69 894.53,1385.7C986.848,1384.92 1040.43,1270.76 1042.74,1187.67C1044.29,1164.91 1042.16,1145.98 1040.26,1129.08C1053.36,1126.84 1066.47,1123.83 1078.96,1120.23C1076.94,1130.81 1075.92,1142.68 1076.09,1155.86C1078.29,1242.55 1077.86,1324.05 1072.54,1398.57C972.149,1437.22 884.426,1515.52 861.88,1637.84C830.376,1808.39 975.441,1820.17 1056.67,1708.37C1096.49,1654.62 1122.84,1572.26 1141.79,1460.62C1187.45,1452.75 1231.92,1452.55 1270.31,1459.19C1342.89,1471.58 1362.99,1510.39 1362.99,1510.39C1398.41,1478.35 1398.02,1395.57 1306.8,1375.69C1260.52,1365.83 1207.79,1365.59 1154.09,1375.04C1160.71,1318.17 1166.49,1253.86 1171.6,1183.47C1177.94,1081.46 1196.17,1060.93 1197.37,1059.42C1160.15,1037.76 1112.35,1043.99 1089.48,1088.57ZM542.314,887.92C596.785,897.547 596.587,987.238 527.991,1040.8C490.689,1068.26 441.957,1085.37 387.879,1091.44C421.599,952.809 487.167,878.367 542.314,887.92ZM1214.87,989.696C1229.7,957.228 1226.3,932.969 1183.09,920.023C1148.3,908.871 1113.01,923.784 1109.3,963.901C1105.73,993.051 1119.2,1021.66 1152.04,1027.55C1175.7,1031.06 1202.73,1015.7 1214.87,989.696Z" style="fill:rgb(51,52,62);"/>
</svg>
